<?xml version="1.0" encoding="UTF-8" standalone="no"?>
<svg
   width="151.11070942710813mm"
   height="58.96295508680618mm"
   viewBox="0 0 151.11070942710813 58.96295508680618"
   version="1.1"
   id="svg11"
   sodipodi:docname="logo.svg"
   inkscape:version="1.2.2 (732a01da63, 2022-12-09)"
   xmlns:inkscape="http://www.inkscape.org/namespaces/inkscape"
   xmlns:sodipodi="http://sodipodi.sourceforge.net/DTD/sodipodi-0.dtd"
   xmlns="http://www.w3.org/2000/svg"
   xmlns:svg="http://www.w3.org/2000/svg">
  <defs
     id="defs15" />
  <sodipodi:namedview
     id="namedview13"
     pagecolor="#ffffff"
     bordercolor="#666666"
     borderopacity="1.0"
     inkscape:showpageshadow="2"
     inkscape:pageopacity="0.0"
     inkscape:pagecheckerboard="0"
     inkscape:deskcolor="#d1d1d1"
     inkscape:document-units="mm"
     showgrid="false"
     inkscape:zoom="2"
     inkscape:cx="269.75"
     inkscape:cy="84"
     inkscape:window-width="1857"
     inkscape:window-height="1057"
     inkscape:window-x="-8"
     inkscape:window-y="-8"
     inkscape:window-maximized="1"
     inkscape:current-layer="svg11" />
  <path
     id="path971"
     style="font-weight:900;font-size:36px;line-height:1.25;font-family:Arial;-inkscape-font-specification:'Arial, Heavy';fill:#000000;fill-opacity:1;stroke:#000000;stroke-width:0.35;stroke-dasharray:none;stroke-opacity:1"
     d="m 88.415275,1.4097331 c -2.414058,0 -4.405741,0.3047824 -5.974829,0.9141561 -1.553562,0.5976551 -2.890235,1.4646751 -4.009574,2.6013916 -1.115532,1.1249976 -2.141167,2.6952025 -3.077332,4.7108235 l 6.983553,0.5803267 c 0.671366,-1.4531225 1.387397,-2.4669408 2.148189,-3.0411584 0.772511,-0.5742175 1.615501,-0.8614461 2.529562,-0.8614461 0.878904,0 1.514376,0.2813773 1.905827,0.8438761 0.406977,0.5507802 0.483005,1.2188575 0.227893,2.0040121 -0.236073,0.7265611 -0.778628,1.4941093 -1.627291,2.3027023 -0.848665,0.808592 -2.574943,1.992097 -5.179012,3.550687 -4.259846,2.542964 -7.321325,4.75199 -9.184453,6.626986 -0.274231,0.276559 -0.534962,0.556993 -0.789099,0.839225 h -0.724503 l -0.469222,1.442806 C 70.5839,24.706341 70.06715,25.509699 69.620557,26.33276 67.243923,23.848107 63.727125,22.489969 59.647522,22.481315 H 53.647888 L 42.275456,57.481246 h 6.00015 c 4.426028,-1.3e-5 9.21217,-1.586072 13.443624,-4.455025 l -1.447457,4.455025 h 6.000151 L 85.849023,34.15037 78.268091,57.481246 h 23.996469 l 7.58041,-23.330876 4.41576,23.330876 h 6.00015 l 9.51776,-29.293302 h 5.99809 l -9.51777,29.293302 h 6.00015 l 9.51777,-29.293302 h 5.99808 l 1.85415,-5.706629 h -4.2168 c 0.6976,-0.984165 1.21996,-1.995971 1.55805,-3.036507 0.38838,-1.195311 0.48156,-2.220832 0.27905,-3.076298 -0.18698,-0.867186 -0.62278,-1.56452 -1.3069,-2.091862 -0.42073,-0.328125 -1.08891,-0.614836 -2.00504,-0.860929 1.45131,-0.679686 2.62795,-1.470639 3.53053,-2.372982 0.90256,-0.902342 1.53481,-1.9103093 1.89653,-3.0235882 0.61684,-1.8984337 0.37892,-3.4744898 -0.71366,-4.7283936 -1.09257,-1.2539037 -3.32055,-1.8810221 -6.68382,-1.8810221 -2.92968,0 -5.38373,0.5739403 -7.36235,1.7223755 -1.46317,0.8543247 -2.73122,1.98827 -3.80493,3.4003092 -0.0153,-0.5626932 -0.11391,-1.0985398 -0.29611,-1.607137 -0.4085,-1.1953101 -1.22255,-2.079884 -2.44223,-2.6541016 -1.20794,-0.5742176 -3.07134,-0.8614461 -5.59087,-0.8614461 -2.41406,0 -4.40573,0.3047824 -5.97483,0.9141561 -0.97979,0.3769219 -1.87339,0.8607784 -2.68045,1.4521077 -0.0106,-0.015256 -0.0202,-0.030777 -0.031,-0.045992 -0.47847,-0.6914049 -1.2061,-1.2483081 -2.1823,-1.6701823 -0.9724,-0.4335929 -2.32585,-0.6500895 -4.06021,-0.6500895 -3.60937,0 -6.61679,0.9787107 -9.022192,2.9357381 C 97.893186,4.8576037 97.294769,5.4710724 96.723295,6.1846354 96.683655,5.7479872 96.592654,5.32801 96.448376,4.9252808 96.039884,3.7299707 95.225821,2.8453968 94.006148,2.2711792 92.798194,1.6969616 90.934802,1.4097331 88.415275,1.4097331 Z m 51.966335,4.4472737 c 0.82031,0 1.38887,0.2345671 1.70532,0.7033163 0.31645,0.468749 0.34709,1.0953507 0.092,1.8805054 -0.26653,0.8203109 -0.81321,1.5293464 -1.64021,2.1270015 -0.81528,0.597655 -1.6918,0.896587 -2.6293,0.896587 -0.22266,0 -0.5239,-0.02926 -0.9033,-0.08785 l -2.03089,5.114933 c 1.07575,-0.281249 1.89472,-0.42168 2.45722,-0.42168 1.05469,0 1.77994,0.328187 2.17609,0.984436 0.40784,0.656249 0.41789,1.581782 0.0295,2.777092 -0.35255,1.085038 -0.91892,1.966753 -1.69344,2.649967 h -5.12113 c -0.22952,-0.590723 -0.27299,-1.459207 -0.12299,-2.614827 l -7.4626,0.949296 c -0.011,0.334104 -0.009,0.656107 0.005,0.966866 h -10.00766 c 0.86567,-0.64453 1.60389,-1.165809 2.21382,-1.564246 0.62164,-0.398436 1.81458,-1.09577 3.57963,-2.091862 2.98171,-1.710934 5.1621,-3.281139 6.54068,-4.710823 1.39031,-1.429685 2.34077,-2.929675 2.85099,-4.4999841 0.0731,-0.22511 0.13443,-0.4467752 0.18655,-0.6650757 l 5.52628,1.0516154 c 0.60253,-1.2773412 1.24938,-2.1677663 1.94045,-2.6716716 0.69488,-0.515624 1.46412,-0.7735962 2.30787,-0.7735962 z m -34.63354,0.3162598 c 1.16016,0 1.83503,0.5920109 2.02468,1.7756022 0.20517,1.1718726 -0.24828,3.4686672 -1.36012,6.8905352 -0.75772,2.332027 -1.4441,4.049029 -2.05983,5.15059 -0.60401,1.10156 -1.25969,1.910068 -1.96628,2.425692 -0.032,0.0233 -0.0641,0.04341 -0.0961,0.06563 h -3.557925 c -0.205492,-0.281518 -0.34612,-0.648728 -0.421163,-1.102775 -0.182031,-1.207029 0.260393,-3.451162 1.326534,-6.732406 1.054714,-3.246087 2.039644,-5.4668152 2.955374,-6.6621252 0.91952,-1.2070289 1.97126,-1.8107422 3.15485,-1.8107422 z m 15.32206,0.1405599 c 0.8789,0 1.51438,0.2813773 1.90583,0.8438761 0.40697,0.5507802 0.48248,1.2188575 0.22737,2.0040121 -0.23607,0.7265611 -0.77811,1.4941093 -1.62677,2.3027023 -0.84866,0.808592 -2.57495,1.992097 -5.17901,3.550687 -1.40279,0.837409 -2.6729,1.63798 -3.81579,2.402954 0.36743,-0.899686 0.71647,-1.858615 1.04748,-2.877343 0.49805,-1.53286 0.85111,-3.021614 1.06092,-4.465878 l 1.70222,0.141594 c 0.67138,-1.4531225 1.3874,-2.4669408 2.14819,-3.0411584 0.77251,-0.5742175 1.61549,-0.8614461 2.52956,-0.8614461 z M 92.679097,14.212052 c -0.04615,0.137629 -0.09196,0.27648 -0.137459,0.416512 -0.647299,1.992183 -1.069038,3.81451 -1.266072,5.46685 -0.06753,0.610399 -0.101129,1.172544 -0.100253,1.687236 h -9.995255 c 0.865668,-0.64453 1.60389,-1.165809 2.213818,-1.564246 0.621647,-0.398436 1.814573,-1.09577 3.579627,-2.091862 2.437847,-1.398868 4.339385,-2.703631 5.705594,-3.91449 z M 75.974691,27.618469 h 9.354984 L 70.063424,45.812191 Z m 38.633819,0 h 9.3555 l -5.91178,18.193722 z M 98.118549,51.775139 H 86.122252 L 90.078033,39.600495 H 102.07433 Z M 103.92843,33.894156 H 91.932135 l 1.854102,-5.706339 H 105.78253 Z M 57.793642,28.187817 c 6.625383,-2.8e-5 10.280662,5.28015 8.164309,11.793609 -2.116352,6.513459 -9.202916,11.793684 -15.828297,11.793713 z M 44.679548,13.150545 36.085438,39.600495 H 22.485404 Z M 1.481478,57.481478 h 6 L 17.697217,45.306834 h 16.534119 l -3.955782,12.174644 h 6 l 18.195503,-56 h -6 z"
     sodipodi:nodetypes="scccccscsscccccccccccccccccccccccccccscccssssccccsccccsccccsssscsccscscccccccccccccssccscccccscccscssccscccscscccccccccccccccccccccccccsccccccccccccccc" />
</svg>
